# This file uses centimeters as units for non-parametric coordinates.

g default
v 0.278415 -0.134077 0.951057
v 0.192669 -0.241599 0.951057
v 0.068763 -0.301269 0.951056
v -0.068763 -0.301269 0.951056
v -0.192669 -0.241599 0.951057
v -0.278415 -0.134077 0.951057
v -0.309017 -0.000000 0.951057
v -0.278415 0.134077 0.951056
v -0.192669 0.241599 0.951056
v -0.068763 0.301269 0.951056
v 0.068763 0.301269 0.951057
v 0.192669 0.241599 0.951056
v 0.278415 0.134077 0.951056
v 0.309017 0.000000 0.951057
v 0.529576 -0.255030 0.809017
v 0.366478 -0.459549 0.809017
v 0.130795 -0.573048 0.809017
v -0.130794 -0.573048 0.809017
v -0.366478 -0.459549 0.809017
v -0.529576 -0.255031 0.809017
v -0.587785 -0.000000 0.809017
v -0.529576 0.255030 0.809017
v -0.366478 0.459549 0.809017
v -0.130795 0.573048 0.809017
v 0.130794 0.573048 0.809017
v 0.366478 0.459549 0.809017
v 0.529576 0.255030 0.809017
v 0.587785 0.000000 0.809017
v 0.728899 -0.351019 0.587785
v 0.504414 -0.632515 0.587785
v 0.180023 -0.788733 0.587785
v -0.180023 -0.788733 0.587785
v -0.504414 -0.632515 0.587785
v -0.728899 -0.351019 0.587785
v -0.809017 -0.000000 0.587785
v -0.728899 0.351019 0.587785
v -0.504414 0.632515 0.587785
v -0.180023 0.788733 0.587785
v 0.180023 0.788733 0.587785
v 0.504414 0.632515 0.587785
v 0.728899 0.351019 0.587785
v 0.809017 0.000000 0.587785
v 0.856872 -0.412648 0.309017
v 0.592974 -0.743566 0.309017
v 0.211630 -0.927211 0.309017
v -0.211630 -0.927212 0.309017
v -0.592974 -0.743566 0.309017
v -0.856872 -0.412648 0.309017
v -0.951056 -0.000000 0.309017
v -0.856872 0.412648 0.309017
v -0.592974 0.743566 0.309017
v -0.211630 0.927212 0.309017
v 0.211630 0.927212 0.309017
v 0.592974 0.743566 0.309017
v 0.856872 0.412648 0.309017
v 0.951057 0.000000 0.309017
v 0.900969 -0.433883 0.000000
v 0.623490 -0.781831 0.000000
v 0.222521 -0.974928 0.000000
v -0.222521 -0.974928 0.000000
v -0.623490 -0.781832 0.000000
v -0.900969 -0.433884 0.000000
v -1.000000 -0.000000 0.000000
v -0.900969 0.433884 0.000000
v -0.623490 0.781831 0.000000
v -0.222521 0.974928 0.000000
v 0.222521 0.974928 0.000000
v 0.623490 0.781832 0.000000
v 0.900969 0.433884 0.000000
v 1.000000 0.000000 0.000000
v 0.000000 0.000000 1.000000
vt 0.581035 0.461413
vt 0.556265 0.430057
vt 0.611972 0.359891
vt 0.661674 0.422348
vt 0.520342 0.412575
vt 0.540092 0.325184
vt 0.480403 0.412405
vt 0.460271 0.325101
vt 0.444330 0.429586
vt 0.388320 0.359658
vt 0.419297 0.460709
vt 0.338488 0.422013
vt 0.410237 0.499618
vt 0.320646 0.499813
vt 0.418969 0.538608
vt 0.338326 0.577650
vt 0.443723 0.569929
vt 0.388029 0.640111
vt 0.479678 0.587432
vt 0.459906 0.674814
vt 0.519569 0.587601
vt 0.539732 0.674901
vt 0.555701 0.570392
vt 0.611676 0.640342
vt 0.580680 0.539323
vt 0.661516 0.577985
vt 0.589771 0.500353
vt 0.679353 0.500189
vt 0.662931 0.295859
vt 0.735370 0.386769
vt 0.558223 0.245382
vt 0.441982 0.245335
vt 0.337233 0.295728
vt 0.264722 0.386579
vt 0.238810 0.499895
vt 0.264630 0.613232
vt 0.337068 0.704141
vt 0.441778 0.754619
vt 0.558017 0.754664
vt 0.662768 0.704272
vt 0.735278 0.613421
vt 0.761190 0.500105
vt 0.722537 0.221208
vt 0.821462 0.345372
vt 0.579535 0.152262
vt 0.420781 0.152190
vt 0.277717 0.221005
vt 0.178679 0.345080
vt 0.143282 0.499837
vt 0.178538 0.654628
vt 0.277463 0.778792
vt 0.420464 0.847738
vt 0.579219 0.847811
vt 0.722283 0.778995
vt 0.821322 0.654921
vt 0.856718 0.500162
vt 0.789617 0.136224
vt 0.918773 0.297910
vt 0.603100 0.046589
vt 0.396162 0.046758
vt 0.209791 0.136696
vt 0.080899 0.298592
vt 0.035015 0.500379
vt 0.081227 0.702090
vt 0.210383 0.863776
vt 0.396900 0.953411
vt 0.603838 0.953242
vt 0.790209 0.863304
vt 0.919101 0.701408
vt 0.964985 0.499621
vt 0.500000 0.500000
vn 0.356156 -0.171516 0.918551
vn 0.246468 -0.309061 0.918551
vn 0.391937 -0.491474 0.777714
vn 0.566366 -0.272747 0.777714
vn 0.087963 -0.385393 0.918550
vn 0.139881 -0.612858 0.777714
vn -0.087963 -0.385393 0.918551
vn -0.139881 -0.612858 0.777714
vn -0.246468 -0.309061 0.918551
vn -0.391937 -0.491474 0.777714
vn -0.356156 -0.171516 0.918551
vn -0.566365 -0.272747 0.777714
vn -0.395304 0.000000 0.918551
vn -0.628618 -0.000000 0.777714
vn -0.356156 0.171516 0.918551
vn -0.566366 0.272747 0.777714
vn -0.246468 0.309061 0.918550
vn -0.391937 0.491474 0.777714
vn -0.087964 0.385392 0.918551
vn -0.139881 0.612858 0.777714
vn 0.087963 0.385392 0.918551
vn 0.139881 0.612858 0.777714
vn 0.246468 0.309061 0.918550
vn 0.391937 0.491474 0.777714
vn 0.356156 0.171516 0.918550
vn 0.566366 0.272747 0.777714
vn 0.395304 0.000000 0.918551
vn 0.628618 0.000000 0.777714
vn 0.515608 -0.646552 0.562244
vn 0.745076 -0.358809 0.562244
vn 0.184019 -0.806238 0.562244
vn -0.184018 -0.806238 0.562244
vn -0.515608 -0.646552 0.562244
vn -0.745076 -0.358810 0.562244
vn -0.826972 -0.000000 0.562244
vn -0.745076 0.358809 0.562244
vn -0.515608 0.646552 0.562244
vn -0.184019 0.806238 0.562244
vn 0.184018 0.806238 0.562244
vn 0.515608 0.646552 0.562244
vn 0.745076 0.358810 0.562244
vn 0.826971 0.000000 0.562244
vn 0.595820 -0.747134 0.294602
vn 0.860984 -0.414628 0.294602
vn 0.212646 -0.931661 0.294602
vn -0.212645 -0.931661 0.294602
vn -0.595819 -0.747134 0.294602
vn -0.860984 -0.414628 0.294602
vn -0.955620 -0.000000 0.294602
vn -0.860984 0.414628 0.294602
vn -0.595819 0.747134 0.294602
vn -0.212646 0.931661 0.294602
vn 0.212645 0.931661 0.294602
vn 0.595819 0.747134 0.294602
vn 0.860984 0.414628 0.294602
vn 0.955620 0.000000 0.294602
vn 0.615814 -0.772206 0.156434
vn 0.889876 -0.428542 0.156434
vn 0.219782 -0.962925 0.156434
vn -0.219781 -0.962925 0.156434
vn -0.615814 -0.772206 0.156434
vn -0.889876 -0.428542 0.156435
vn -0.987688 -0.000000 0.156434
vn -0.889877 0.428542 0.156434
vn -0.615814 0.772206 0.156434
vn -0.219782 0.962925 0.156434
vn 0.219781 0.962925 0.156434
vn 0.615814 0.772206 0.156434
vn 0.889877 0.428542 0.156434
vn 0.987688 0.000000 0.156434
vn 0.000000 0.000000 1.000000
s 1
g pSphere1
f 1/1/1 2/2/2 16/3/3 15/4/4
f 2/2/2 3/5/5 17/6/6 16/3/3
f 3/5/5 4/7/7 18/8/8 17/6/6
f 4/7/7 5/9/9 19/10/10 18/8/8
f 5/9/9 6/11/11 20/12/12 19/10/10
f 6/11/11 7/13/13 21/14/14 20/12/12
f 7/13/13 8/15/15 22/16/16 21/14/14
f 8/15/15 9/17/17 23/18/18 22/16/16
f 9/17/17 10/19/19 24/20/20 23/18/18
f 10/19/19 11/21/21 25/22/22 24/20/20
f 11/21/21 12/23/23 26/24/24 25/22/22
f 12/23/23 13/25/25 27/26/26 26/24/24
f 13/25/25 14/27/27 28/28/28 27/26/26
f 14/27/27 1/1/1 15/4/4 28/28/28
f 15/4/4 16/3/3 30/29/29 29/30/30
f 16/3/3 17/6/6 31/31/31 30/29/29
f 17/6/6 18/8/8 32/32/32 31/31/31
f 18/8/8 19/10/10 33/33/33 32/32/32
f 19/10/10 20/12/12 34/34/34 33/33/33
f 20/12/12 21/14/14 35/35/35 34/34/34
f 21/14/14 22/16/16 36/36/36 35/35/35
f 22/16/16 23/18/18 37/37/37 36/36/36
f 23/18/18 24/20/20 38/38/38 37/37/37
f 24/20/20 25/22/22 39/39/39 38/38/38
f 25/22/22 26/24/24 40/40/40 39/39/39
f 26/24/24 27/26/26 41/41/41 40/40/40
f 27/26/26 28/28/28 42/42/42 41/41/41
f 28/28/28 15/4/4 29/30/30 42/42/42
f 29/30/30 30/29/29 44/43/43 43/44/44
f 30/29/29 31/31/31 45/45/45 44/43/43
f 31/31/31 32/32/32 46/46/46 45/45/45
f 32/32/32 33/33/33 47/47/47 46/46/46
f 33/33/33 34/34/34 48/48/48 47/47/47
f 34/34/34 35/35/35 49/49/49 48/48/48
f 35/35/35 36/36/36 50/50/50 49/49/49
f 36/36/36 37/37/37 51/51/51 50/50/50
f 37/37/37 38/38/38 52/52/52 51/51/51
f 38/38/38 39/39/39 53/53/53 52/52/52
f 39/39/39 40/40/40 54/54/54 53/53/53
f 40/40/40 41/41/41 55/55/55 54/54/54
f 41/41/41 42/42/42 56/56/56 55/55/55
f 42/42/42 29/30/30 43/44/44 56/56/56
f 43/44/44 44/43/43 58/57/57 57/58/58
f 44/43/43 45/45/45 59/59/59 58/57/57
f 45/45/45 46/46/46 60/60/60 59/59/59
f 46/46/46 47/47/47 61/61/61 60/60/60
f 47/47/47 48/48/48 62/62/62 61/61/61
f 48/48/48 49/49/49 63/63/63 62/62/62
f 49/49/49 50/50/50 64/64/64 63/63/63
f 50/50/50 51/51/51 65/65/65 64/64/64
f 51/51/51 52/52/52 66/66/66 65/65/65
f 52/52/52 53/53/53 67/67/67 66/66/66
f 53/53/53 54/54/54 68/68/68 67/67/67
f 54/54/54 55/55/55 69/69/69 68/68/68
f 55/55/55 56/56/56 70/70/70 69/69/69
f 56/56/56 43/44/44 57/58/58 70/70/70
f 2/2/2 1/1/1 71/71/71
f 3/5/5 2/2/2 71/71/71
f 4/7/7 3/5/5 71/71/71
f 5/9/9 4/7/7 71/71/71
f 6/11/11 5/9/9 71/71/71
f 7/13/13 6/11/11 71/71/71
f 8/15/15 7/13/13 71/71/71
f 9/17/17 8/15/15 71/71/71
f 10/19/19 9/17/17 71/71/71
f 11/21/21 10/19/19 71/71/71
f 12/23/23 11/21/21 71/71/71
f 13/25/25 12/23/23 71/71/71
f 14/27/27 13/25/25 71/71/71
f 1/1/1 14/27/27 71/71/71
