# This file uses centimeters as units for non-parametric coordinates.

g default
v -0.500000 -2.500000 4.000000
v 0.500000 -2.500000 4.000000
v -0.500000 2.500000 4.000000
v 0.500000 2.500000 4.000000
v -0.500000 2.500000 -4.000000
v 0.500000 2.500000 -4.000000
v -0.500000 -2.500000 -4.000000
v 0.500000 -2.500000 -4.000000
vt 1.023116 -0.039267
vt 1.027489 -0.167913
vt 0.025690 0.662226
vt 1.022471 0.698642
vt 1.023728 0.662226
vt 0.873198 0.604049
vt 1.023728 -0.031675
vt 0.027108 -0.041371
vt 0.138790 0.771681
vt 0.025690 -0.031675
vt 0.023384 0.820535
vt 0.886495 0.605137
vt 0.025210 -0.170235
vt 0.872197 0.772600
vt 1.024752 0.822700
vt 0.153560 0.602426
vt 0.024425 0.696235
vt 0.135592 0.601366
vt 0.149430 0.774298
vt 0.887340 0.774942
vn 0.000000 0.000000 1.000000
vn 0.000000 0.000000 1.000000
vn 0.000000 0.000000 1.000000
vn 0.000000 0.000000 1.000000
vn 0.000000 1.000000 0.000000
vn 0.000000 1.000000 0.000000
vn 0.000000 1.000000 0.000000
vn 0.000000 1.000000 0.000000
vn 0.000000 0.000000 -1.000000
vn 0.000000 0.000000 -1.000000
vn 0.000000 0.000000 -1.000000
vn 0.000000 0.000000 -1.000000
vn 0.000000 -1.000000 0.000000
vn 0.000000 -1.000000 0.000000
vn 0.000000 -1.000000 0.000000
vn 0.000000 -1.000000 0.000000
vn 1.000000 0.000000 0.000000
vn 1.000000 0.000000 0.000000
vn 1.000000 0.000000 0.000000
vn 1.000000 0.000000 0.000000
vn -1.000000 0.000000 0.000000
vn -1.000000 0.000000 0.000000
vn -1.000000 0.000000 0.000000
vn -1.000000 0.000000 0.000000
s off
g pCube18 pCube19
f 3/20/1 1/19/2 2/16/3 4/12/4
f 3/4/5 4/15/6 6/11/7 5/17/8
f 8/9/9 7/18/10 5/6/11 6/14/12
f 7/8/13 8/13/14 2/2/15 1/1/16
f 2/10/17 8/7/18 6/5/19 4/3/20
f 7/8/21 1/1/22 3/4/23 5/17/24
